<?xml version="1.0" standalone="no"?> <!DOCTYPE svg PUBLIC "-//W3C//DTD SVG 1.0//EN" "http://www.w3.org/TR/2001/REC-SVG-20010904/DTD/svg10.dtd" > <svg xmlns="http://www.w3.org/2000/svg" width="100%" height="100%">
<defs >
<font horiz-adv-x="1584" ><font-face
    font-family="M51_SLEEPEN SADNESS"
    units-per-em="1024"
    panose-1="2 11 6 0 0 0 0 0 0 0"
    ascent="1020"
    descent="-408"
    alphabetic="0" />
<missing-glyph horiz-adv-x="512" d="M206 400V500H306V400H206Z" />
<glyph unicode=" " glyph-name="null" horiz-adv-x="816" />
<glyph unicode="!" glyph-name="null" horiz-adv-x="408" d="M0 0V204H204V0H0ZM0 408V1020H204V408H0Z" />
<glyph unicode="&quot;" glyph-name="null" horiz-adv-x="816" d="M0 612V1020H204V612H0ZM408 612V1020H612V612H408Z" />
<glyph unicode="#" glyph-name="null" horiz-adv-x="1632" d="M204 0V204H0V408H204V612H0V816H204V1020H408V816H1020V1020H1224V816H1428V612H1224V408H1428V204H1224V0H1020V204H408V0H204ZM408 408H1020V612H408V408Z" />
<glyph unicode="$" glyph-name="null" horiz-adv-x="1632" d="M0 0V204H612V408H0V1020H1428V816H816V612H1428V0H0ZM816 204H1224V408H816V204ZM204 612H612V816H204V612Z" />
<glyph unicode="%" glyph-name="null" horiz-adv-x="1632" d="M204 0V204H408V0H204ZM408 204V408H612V204H408ZM612 408V612H816V408H612ZM816 612V816H1020V612H816ZM1020 816V1020H1224V816H1020ZM408 408H0V1020H612V612H408V816H204V612H408V408ZM1020 612H1428V0H816V408H1020V204H1224V408H1020V612Z"
/>
<glyph unicode="&amp;" glyph-name="null" horiz-adv-x="1632" d="M0 0V1020H612V816H204V612H612V816H816V612H1020V408H1224V204H1020V0H0ZM204 204H816V408H204V204ZM1224 408V612H1428V408H1224ZM1224 0V204H1428V0H1224Z" />
<glyph unicode="&apos;" glyph-name="null" horiz-adv-x="408" d="M0 612V1020H204V612H0Z" />
<glyph unicode="(" glyph-name="null" horiz-adv-x="612" d="M204 0V204H408V0H204ZM0 204V816H204V204H0ZM204 816V1020H408V816H204Z" />
<glyph unicode=")" glyph-name="null" horiz-adv-x="612" d="M204 0H0V204H204V0ZM408 204H204V816H408V204ZM204 816H0V1020H204V816Z" />
<glyph unicode="*" glyph-name="null" horiz-adv-x="1224" d="M408 0V204H204V408H408V612H204V816H408V1020H612V816H816V612H612V408H816V204H612V0H408ZM0 816V1020H204V816H0ZM0 0V204H204V0H0ZM816 0V204H1020V0H816ZM816 1020H1020V816H816V1020Z" />
<glyph unicode="+" glyph-name="null" horiz-adv-x="1224" d="M408 0V408H0V612H408V1020H612V612H1020V408H612V0H408Z" />
<glyph unicode="," glyph-name="null" horiz-adv-x="408" d="M0 -204V204H204V-204H0Z" />
<glyph unicode="-" glyph-name="null" horiz-adv-x="1224" d="M0 408V612H1020V408H0Z" />
<glyph unicode="." glyph-name="null" horiz-adv-x="408" d="M0 0V204H204V0H0Z" />
<glyph unicode="/" glyph-name="null" horiz-adv-x="1224" d="M0 0V204H204V0H0ZM204 204V408H408V204H204ZM408 408V612H612V408H408ZM612 612V816H816V612H612ZM816 816V1020H1020V816H816Z" />
<glyph unicode="0" glyph-name="null" horiz-adv-x="1632" d="M0 0V1020H1428V0H0ZM204 204H408V408H612V612H816V816H204V204ZM612 204H1224V816H1020V612H816V408H612V204Z" />
<glyph unicode="1" glyph-name="null" horiz-adv-x="612" d="M0 816V1020H408V0H204V816H0Z" />
<glyph unicode="2" glyph-name="null" horiz-adv-x="1632" d="M0 0V612H1224V816H0V1020H1428V408H204V204H1428V0H0Z" />
<glyph unicode="3" glyph-name="null" horiz-adv-x="1632" d="M1428 0H0V204H1224V408H0V612H1224V816H0V1020H1428V0Z" />
<glyph unicode="4" glyph-name="null" horiz-adv-x="1632" d="M0 204V612H408V408H1224V816H816V1020H1428V0H1224V204H0ZM408 612V816H816V612H408Z" />
<glyph unicode="5" glyph-name="null" horiz-adv-x="1632" d="M1428 0H0V204H1224V408H0V1020H1428V816H204V612H1428V0Z" />
<glyph unicode="6" glyph-name="null" horiz-adv-x="1632" d="M0 0V1020H1428V816H204V612H1428V0H0ZM204 408V204H1224V408H204Z" />
<glyph unicode="7" glyph-name="null" horiz-adv-x="1632" d="M408 0V204H612V0H408ZM612 204V408H816V204H612ZM816 408V612H1020V408H816ZM1020 612V816H0V1020H1428V816H1224V612H1020Z" />
<glyph unicode="8" glyph-name="null" horiz-adv-x="1632" d="M0 0V1020H1428V0H0ZM204 816V612H1224V816H204ZM204 408V204H1224V408H204Z" />
<glyph unicode="9" glyph-name="null" horiz-adv-x="1632" d="M0 1020H1428V0H0V204H1224V408H0V1020ZM204 816V612H1224V816H204Z" />
<glyph unicode=":" glyph-name="null" horiz-adv-x="408" d="M0 204V408H204V204H0ZM0 612V816H204V612H0Z" />
<glyph unicode=";" glyph-name="null" horiz-adv-x="512" d="M0 0V408H204V0H0ZM0 612V816H204V612H0Z" />
<glyph unicode="&lt;" glyph-name="null" horiz-adv-x="816" d="M0 408V612H204V408H0ZM204 204V408H408V204H204ZM408 0V204H612V0H408ZM204 612V816H408V612H204ZM408 816V1020H612V816H408Z" />
<glyph unicode="=" glyph-name="null" horiz-adv-x="1224" d="M0 204V408H1020V204H0ZM0 612V816H1020V612H0Z" />
<glyph unicode="&gt;" glyph-name="null" horiz-adv-x="816" d="M612 408H408V612H612V408ZM408 204H204V408H408V204ZM204 0H0V204H204V0ZM408 612H204V816H408V612ZM204 816H0V1020H204V816Z" />
<glyph unicode="?" glyph-name="null" horiz-adv-x="1632" d="M0 612V1020H1428V408H612V612H1224V816H204V612H0ZM612 0V204H816V0H612Z" />
<glyph unicode="@" glyph-name="null" horiz-adv-x="1632" d="M0 0V612H204V204H612V612H1224V816H408V1020H1428V0H0ZM204 816H408V612H204V816ZM1224 204V408H816V204H1224Z" />
<glyph unicode="A" glyph-name="null" horiz-adv-x="1632" d="M0 0V612H204V204H816V0H0ZM204 612V816H408V612H204ZM408 816V1020H1428V0H1224V816H408Z" />
<glyph unicode="B" glyph-name="null" horiz-adv-x="1632" d="M0 0V612H1020V816H0V1020H1224V612H1428V0H0ZM204 204H1224V408H204V204Z" />
<glyph unicode="C" glyph-name="null" horiz-adv-x="1632" d="M0 0V612H204V204H1428V0H0ZM204 612V816H408V612H204ZM408 816V1020H1428V816H408Z" />
<glyph unicode="D" glyph-name="null" horiz-adv-x="1632" d="M1428 0H0V1020H1020V816H204V204H1224V612H1428V0ZM1020 612V816H1224V612H1020Z" />
<glyph unicode="E" glyph-name="null" horiz-adv-x="1632" d="M0 0V612H1428V408H204V204H1428V0H0ZM0 816V1020H1428V816H0Z" />
<glyph unicode="F" glyph-name="null" horiz-adv-x="1632" d="M0 0V612H1428V408H204V0H0ZM0 816V1020H1428V816H0Z" />
<glyph unicode="G" glyph-name="null" horiz-adv-x="1632" d="M408 612H204V816H408V612ZM0 0V612H204V204H1224V612H1428V0H0ZM408 816V1020H1428V816H408Z" />
<glyph unicode="H" glyph-name="null" horiz-adv-x="1632" d="M0 0V1020H204V612H1224V1020H1428V0H1224V408H204V0H0Z" />
<glyph unicode="I" glyph-name="null" horiz-adv-x="408" d="M0 0V1020H204V0H0Z" />
<glyph unicode="J" glyph-name="null" horiz-adv-x="1632" d="M0 0V408H204V204H1224V1020H1428V0H0Z" />
<glyph unicode="K" glyph-name="null" horiz-adv-x="1632" d="M0 0V1020H204V612H612V408H204V0H0ZM612 612V816H816V612H612ZM612 204V408H816V204H612ZM816 816V1020H1428V816H816ZM816 0V204H1428V0H816Z" />
<glyph unicode="L" glyph-name="null" horiz-adv-x="1632" d="M0 0V1020H204V204H1428V0H0Z" />
<glyph unicode="M" glyph-name="null" horiz-adv-x="1632" d="M0 0V1020H612V816H204V0H0ZM612 0V816H816V0H612ZM816 816V1020H1224V816H816ZM1224 0V816H1428V0H1224Z" />
<glyph unicode="N" glyph-name="null" horiz-adv-x="1632" d="M0 0V1020H1020V816H204V0H0ZM1020 612V816H1224V612H1020ZM1224 0V612H1428V0H1224Z" />
<glyph unicode="O" glyph-name="null" horiz-adv-x="1632" d="M0 0V1020H1428V0H0ZM204 204H1224V816H204V204Z" />
<glyph unicode="P" glyph-name="null" horiz-adv-x="1632" d="M0 0V612H1224V816H0V1020H1428V408H204V0H0Z" />
<glyph unicode="Q" glyph-name="null" horiz-adv-x="1632" d="M0 0V1020H1428V0H816V-204H612V0H0ZM204 204H612V408H816V204H1224V816H204V204Z" />
<glyph unicode="R" glyph-name="null" horiz-adv-x="1632" d="M0 0V612H1224V816H0V1020H1428V408H1020V204H816V408H204V0H0ZM1020 0V204H1428V0H1020Z" />
<glyph unicode="S" glyph-name="null" horiz-adv-x="1632" d="M1428 0H0V204H1224V408H0V612H1428V0ZM1428 816H0V1020H1428V816Z" />
<glyph unicode="T" glyph-name="null" horiz-adv-x="1632" d="M1428 816H816V0H612V816H0V1020H1428V816Z" />
<glyph unicode="U" glyph-name="null" horiz-adv-x="1632" d="M0 0V1020H204V204H1224V1020H1428V0H0Z" />
<glyph unicode="V" glyph-name="null" horiz-adv-x="1632" d="M0 612V1020H204V612H0ZM204 408V612H408V408H204ZM408 204V408H612V204H408ZM612 0V204H816V0H612ZM816 204V408H1020V204H816ZM1020 408V612H1224V408H1020ZM1224 612V1020H1428V612H1224Z" />
<glyph unicode="W" glyph-name="null" horiz-adv-x="1632" d="M0 1020H204V204H612V0H0V1020ZM612 1020H816V204H612V1020ZM816 204H1224V0H816V204ZM1224 1020H1428V204H1224V1020Z" />
<glyph unicode="X" glyph-name="null" horiz-adv-x="1632" d="M0 0V204H408V0H0ZM408 204V408H612V204H408ZM612 408V612H816V408H612ZM408 612V816H612V612H408ZM816 612V816H1020V612H816ZM816 204V408H1020V204H816ZM1020 0V204H1428V0H1020ZM1020 816V1020H1428V816H1020ZM0
816V1020H408V816H0Z" />
<glyph unicode="Y" glyph-name="null" horiz-adv-x="1632" d="M612 408V612H816V408H612ZM408 612V816H612V612H408ZM816 204V408H1020V204H816ZM0 816V1020H408V816H0ZM1020 408V612H1224V408H1020ZM1224 612V1020H1428V612H1224ZM0 0V204H816V0H0Z" />
<glyph unicode="Z" glyph-name="null" horiz-adv-x="1632" d="M0 0V204H204V408H612V204H1428V0H0ZM1428 1020V816H1224V612H816V816H0V1020H1428ZM612 408V612H816V408H612Z" />
<glyph unicode="[" glyph-name="null" horiz-adv-x="612" d="M0 0V1020H408V816H204V204H408V0H0Z" />
<glyph unicode="\" glyph-name="null" horiz-adv-x="1224" d="M0 816V1020H204V816H0ZM204 612V816H408V612H204ZM408 408V612H612V408H408ZM612 204V408H816V204H612ZM816 0V204H1020V0H816Z" />
<glyph unicode="]" glyph-name="null" horiz-adv-x="612" d="M408 0H0V204H204V816H0V1020H408V0Z" />
<glyph unicode="^" glyph-name="null" horiz-adv-x="816" d="M0 612V816H204V612H0ZM204 816V1020H408V816H204ZM408 612V816H612V612H408Z" />
<glyph unicode="_" glyph-name="null" horiz-adv-x="1224" d="M0 0V204H1020V0H0Z" />
<glyph unicode="`" glyph-name="null" horiz-adv-x="612" d="M0 816V1020H204V816H0ZM204 612V816H408V612H204Z" />
<glyph unicode="a" glyph-name="null" horiz-adv-x="1632" d="M0 0V612H204V204H816V0H0ZM204 612V816H408V612H204ZM408 816V1020H1428V0H1224V816H408Z" />
<glyph unicode="b" glyph-name="null" horiz-adv-x="1632" d="M0 0V612H1020V816H0V1020H1224V612H1428V0H0ZM204 204H1224V408H204V204Z" />
<glyph unicode="c" glyph-name="null" horiz-adv-x="1632" d="M0 0V612H204V204H1428V0H0ZM204 612V816H408V612H204ZM408 816V1020H1428V816H408Z" />
<glyph unicode="d" glyph-name="null" horiz-adv-x="1632" d="M1428 0H0V1020H1020V816H204V204H1224V612H1428V0ZM1020 612V816H1224V612H1020Z" />
<glyph unicode="e" glyph-name="null" horiz-adv-x="1632" d="M0 0V612H1428V408H204V204H1428V0H0ZM0 816V1020H1428V816H0Z" />
<glyph unicode="f" glyph-name="null" horiz-adv-x="1632" d="M0 0V612H1428V408H204V0H0ZM0 816V1020H1428V816H0Z" />
<glyph unicode="g" glyph-name="null" horiz-adv-x="1632" d="M408 612H204V816H408V612ZM0 0V612H204V204H1224V612H1428V0H0ZM408 816V1020H1428V816H408Z" />
<glyph unicode="h" glyph-name="null" horiz-adv-x="1632" d="M0 0V1020H204V612H1224V1020H1428V0H1224V408H204V0H0Z" />
<glyph unicode="i" glyph-name="null" horiz-adv-x="408" d="M0 0V1020H204V0H0Z" />
<glyph unicode="j" glyph-name="null" horiz-adv-x="1632" d="M0 0V408H204V204H1224V1020H1428V0H0Z" />
<glyph unicode="k" glyph-name="null" horiz-adv-x="1632" d="M0 0V1020H204V612H612V408H204V0H0ZM612 612V816H816V612H612ZM612 204V408H816V204H612ZM816 816V1020H1428V816H816ZM816 0V204H1428V0H816Z" />
<glyph unicode="l" glyph-name="null" horiz-adv-x="1632" d="M0 0V1020H204V204H1428V0H0Z" />
<glyph unicode="m" glyph-name="null" horiz-adv-x="1632" d="M0 0V1020H612V816H204V0H0ZM612 0V816H816V0H612ZM816 816V1020H1224V816H816ZM1224 0V816H1428V0H1224Z" />
<glyph unicode="n" glyph-name="null" horiz-adv-x="1632" d="M0 0V1020H1020V816H204V0H0ZM1020 612V816H1224V612H1020ZM1224 0V612H1428V0H1224Z" />
<glyph unicode="o" glyph-name="null" horiz-adv-x="1632" d="M0 0V1020H1428V0H0ZM204 204H1224V816H204V204Z" />
<glyph unicode="p" glyph-name="null" horiz-adv-x="1632" d="M0 0V612H1224V816H0V1020H1428V408H204V0H0Z" />
<glyph unicode="q" glyph-name="null" horiz-adv-x="1632" d="M0 0V1020H1428V0H816V-204H612V0H0ZM204 204H612V408H816V204H1224V816H204V204Z" />
<glyph unicode="r" glyph-name="null" horiz-adv-x="1632" d="M0 0V612H1224V816H0V1020H1428V408H1020V204H816V408H204V0H0ZM1020 0V204H1428V0H1020Z" />
<glyph unicode="s" glyph-name="null" horiz-adv-x="1632" d="M1428 0H0V204H1224V408H0V612H1428V0ZM1428 816H0V1020H1428V816Z" />
<glyph unicode="t" glyph-name="null" horiz-adv-x="1632" d="M1428 816H816V0H612V816H0V1020H1428V816Z" />
<glyph unicode="u" glyph-name="null" horiz-adv-x="1632" d="M0 0V1020H204V204H1224V1020H1428V0H0Z" />
<glyph unicode="v" glyph-name="null" horiz-adv-x="1632" d="M0 612V1020H204V612H0ZM204 408V612H408V408H204ZM408 204V408H612V204H408ZM612 0V204H816V0H612ZM816 204V408H1020V204H816ZM1020 408V612H1224V408H1020ZM1224 612V1020H1428V612H1224Z" />
<glyph unicode="w" glyph-name="null" horiz-adv-x="1632" d="M0 1020H204V204H612V0H0V1020ZM612 1020H816V204H612V1020ZM816 204H1224V0H816V204ZM1224 1020H1428V204H1224V1020Z" />
<glyph unicode="x" glyph-name="null" horiz-adv-x="1632" d="M0 0V204H408V0H0ZM408 204V408H612V204H408ZM612 408V612H816V408H612ZM408 612V816H612V612H408ZM816 612V816H1020V612H816ZM816 204V408H1020V204H816ZM1020 0V204H1428V0H1020ZM1020 816V1020H1428V816H1020ZM0
816V1020H408V816H0Z" />
<glyph unicode="y" glyph-name="null" horiz-adv-x="1632" d="M612 408V612H816V408H612ZM408 612V816H612V612H408ZM816 204V408H1020V204H816ZM0 816V1020H408V816H0ZM1020 408V612H1224V408H1020ZM1224 612V1020H1428V612H1224ZM0 0V204H816V0H0Z" />
<glyph unicode="z" glyph-name="null" horiz-adv-x="1632" d="M0 0V204H204V408H612V204H1428V0H0ZM1428 1020V816H1224V612H816V816H0V1020H1428ZM612 408V612H816V408H612Z" />
<glyph unicode="{" glyph-name="null" horiz-adv-x="816" d="M204 0V408H0V612H204V1020H612V816H408V204H612V0H204Z" />
<glyph unicode="|" glyph-name="null" horiz-adv-x="408" d="M0 -204V1020H204V-204H0Z" />
<glyph unicode="}" glyph-name="null" horiz-adv-x="816" d="M408 0H0V204H204V816H0V1020H408V612H612V408H408V0Z" />
<glyph unicode="~" glyph-name="null" horiz-adv-x="1020" d="M0 612V816H204V612H0ZM204 816V1020H408V816H204ZM408 612V816H612V612H408ZM612 816V1020H816V816H612Z" />
</font>
</defs>
</svg>
